<?xml version="1.0" standalone="no"?>
<!DOCTYPE svg PUBLIC "-//W3C//DTD SVG 20010904//EN"
 "http://www.w3.org/TR/2001/REC-SVG-20010904/DTD/svg10.dtd">
<svg version="1.0" xmlns="http://www.w3.org/2000/svg"
 width="640.000000pt" height="640.000000pt" viewBox="0 0 640.000000 640.000000"
 preserveAspectRatio="xMidYMid meet">
<metadata>
Created by potrace 1.14, written by Peter Selinger 2001-2017
</metadata>
<g transform="translate(0.000000,640.000000) scale(0.100000,-0.100000)"
fill="#000000" stroke="none">
<path d="M0 3200 l0 -3200 3135 0 c2756 0 3134 2 3129 15 -3 8 -21 17 -39 21
-18 3 -42 14 -54 25 -11 10 -23 19 -27 19 -4 0 -32 17 -62 38 -30 20 -61 42
-70 47 -8 6 -23 17 -33 25 -41 35 -49 40 -62 40 -8 0 -28 14 -45 30 -18 17
-36 30 -42 30 -5 0 -10 5 -10 11 0 16 -31 38 -52 39 -9 0 -25 10 -35 23 -10
13 -30 27 -45 30 -15 4 -33 14 -41 22 -8 8 -17 12 -20 9 -7 -7 -87 46 -87 58
0 5 -5 6 -10 3 -6 -3 -13 1 -16 9 -3 9 -14 16 -24 16 -10 0 -25 7 -34 15 -8 8
-19 15 -25 15 -5 0 -13 9 -16 20 -3 11 -11 20 -17 20 -6 0 -32 16 -58 35 -26
19 -52 35 -57 35 -6 0 -18 9 -28 20 -17 19 -17 20 1 20 10 0 105 -12 209 -26
105 -14 235 -29 290 -35 55 -5 133 -16 174 -24 40 -8 90 -15 111 -15 45 0 183
-62 200 -90 5 -8 10 -8 14 -2 3 5 -10 17 -29 26 -42 20 -44 24 -7 20 15 -2 19
-1 10 2 -10 3 -18 10 -18 16 0 6 8 7 17 3 10 -3 40 -8 68 -11 27 -2 62 -7 78
-10 l27 -6 0 471 0 471 -21 0 c-22 0 -139 8 -579 40 -151 11 -338 25 -415 30
-77 6 -165 12 -195 15 -30 2 -95 6 -145 10 -49 3 -142 10 -205 15 -63 5 -167
12 -230 15 -234 12 -742 53 -877 70 -19 2 -68 24 -110 47 -41 24 -94 54 -117
66 -22 13 -88 49 -146 79 -58 30 -114 63 -125 73 -11 9 -51 34 -90 55 -38 21
-81 46 -95 56 -21 14 -95 55 -171 94 -30 15 -22 28 14 21 17 -3 131 -8 252
-11 121 -3 258 -7 305 -10 47 -3 238 -12 425 -20 187 -8 430 -19 540 -25 110
-5 274 -12 365 -15 91 -3 248 -10 350 -15 102 -6 300 -15 440 -20 140 -6 305
-15 365 -20 61 -5 171 -12 245 -15 74 -3 154 -8 177 -10 l43 -4 0 2200 0 2199
-3200 0 -3200 0 0 -3200z m5880 2260 c0 -5 -5 -10 -11 -10 -5 0 -7 5 -4 10 3
6 8 10 11 10 2 0 4 -4 4 -10z m-55 -29 c-11 -10 -118 -65 -155 -81 -14 -5 -56
-27 -95 -49 -38 -21 -104 -57 -145 -79 -246 -130 -341 -180 -392 -207 l-58
-30 2 -115 c1 -79 3 -93 5 -47 3 48 8 67 16 64 7 -2 13 -16 15 -30 2 -19 9
-27 22 -27 10 0 26 -10 34 -22 9 -12 16 -17 16 -11 0 7 -4 15 -10 18 -5 3 -10
10 -10 16 0 14 30 11 35 -3 7 -17 76 -21 122 -9 30 9 39 7 49 -7 8 -10 13 -12
14 -4 0 8 17 12 49 12 36 0 48 4 47 14 0 8 4 15 9 15 6 0 9 -7 9 -15 -1 -8 2
-14 7 -14 5 0 9 7 9 15 0 17 32 20 58 6 9 -5 26 -5 37 0 17 6 17 8 3 8 -20 1
-25 20 -5 22 80 7 95 5 90 -6 -2 -7 0 -16 6 -20 13 -7 33 37 21 45 -5 3 36 5
91 5 86 0 100 -2 113 -20 13 -18 15 -19 33 -3 17 16 18 15 18 -13 0 -16 -4
-29 -8 -29 -5 0 -2 -7 6 -14 11 -12 15 -51 16 -183 1 -92 3 -181 5 -198 2 -16
7 -183 11 -371 6 -251 5 -343 -4 -348 -7 -4 -11 0 -11 11 0 15 -2 15 -9 4 -5
-8 -16 -16 -24 -17 -8 -1 -24 -5 -36 -9 -14 -4 -23 -1 -27 9 -9 24 -33 19 -44
-9 -6 -16 -14 -23 -25 -19 -8 3 -15 2 -15 -4 0 -6 -9 -6 -25 1 -14 7 -25 17
-25 24 0 6 -13 21 -30 33 l-29 21 -17 -26 c-9 -14 -25 -25 -36 -25 -14 0 -18
-5 -14 -15 3 -8 1 -15 -5 -15 -5 0 -12 7 -15 15 -4 9 -15 20 -26 26 -13 7 -18
7 -14 1 3 -6 1 -14 -5 -18 -8 -5 -8 -8 0 -13 8 -5 7 -13 -3 -27 -13 -16 -18
-17 -35 -6 -14 8 -21 9 -21 1 0 -6 -7 -3 -16 5 -18 18 -17 18 -38 10 -9 -3
-16 -14 -15 -23 0 -9 3 -11 5 -4 3 7 12 9 20 6 11 -4 12 -8 4 -13 -8 -5 -7
-11 4 -23 21 -21 20 -26 -4 -20 -11 3 -20 9 -20 13 0 5 -9 6 -20 3 -22 -6 -28
-25 -7 -22 23 3 37 -1 37 -11 0 -5 -13 -7 -32 -3 -22 4 -29 3 -24 -5 4 -7 2
-12 -3 -12 -6 0 -11 6 -11 13 0 8 -7 14 -15 14 -9 0 -14 -6 -11 -13 3 -8 0
-16 -6 -20 -7 -4 -8 -3 -4 4 5 8 0 12 -13 12 -14 0 -21 -6 -21 -20 0 -11 5
-20 10 -20 6 0 10 -4 10 -10 0 -5 -9 -10 -19 -10 -11 0 -26 -6 -33 -12 -17
-17 -58 -22 -58 -8 0 6 -11 22 -25 36 -14 14 -25 30 -25 36 0 6 -10 8 -25 4
-18 -5 -25 -2 -25 9 0 8 -8 15 -19 15 -18 0 -19 -10 -15 -257 3 -142 7 -295
10 -341 l6 -83 176 1 c228 2 232 2 232 -10 0 -5 -12 -11 -27 -11 -25 -2 -25
-2 -5 -6 13 -3 22 -8 20 -11 -26 -51 -31 -63 -27 -67 4 -3 190 -11 468 -18 82
-2 84 -3 87 -27 4 -39 6 -522 2 -525 -2 -2 -188 3 -413 10 -226 7 -518 16
-650 20 -276 7 -790 22 -1010 30 -82 3 -217 7 -300 10 -82 3 -195 8 -250 10
-151 7 -376 14 -605 20 -201 6 -206 6 -265 35 -78 37 -141 64 -187 79 -21 7
-41 17 -44 23 -7 11 716 4 1341 -12 294 -8 567 -13 611 -11 7 1 8 23 3 69 -4
37 -13 428 -19 869 l-12 801 169 184 c94 101 240 262 326 358 l157 174 -30 16
c-17 9 -27 19 -23 23 4 5 1 5 -8 2 -13 -5 -117 24 -251 71 -47 16 -64 43 -37
60 8 4 7 9 -2 14 -8 6 1 11 27 14 21 4 57 11 79 17 42 12 51 12 155 6 84 -5
80 -4 80 -24 0 -15 2 -15 9 -4 5 8 16 11 24 8 9 -3 17 -1 19 5 2 6 10 4 20 -6
9 -9 30 -16 47 -16 16 0 33 -4 36 -10 3 -5 -1 -10 -9 -10 -9 0 -16 -4 -16 -10
0 -5 -6 -10 -14 -10 -8 0 -17 -7 -20 -16 -3 -9 -3 -14 1 -12 74 35 301 152
310 160 7 6 13 7 13 3 0 -5 8 -1 18 8 32 29 153 89 168 83 8 -3 13 -2 10 3 -8
12 64 48 113 55 24 4 57 14 75 23 17 9 39 17 49 18 11 1 22 6 25 11 4 5 21 9
37 9 17 -1 48 9 70 22 40 23 68 31 50 14z m22 -543 c-3 -8 -6 -5 -6 6 -1 11 2
17 5 13 3 -3 4 -12 1 -19z m-1894 -915 c4 -282 3 -513 -1 -513 -4 0 -14 5 -22
10 -13 8 -12 10 3 10 10 0 15 5 12 10 -10 16 -33 11 -37 -7 -3 -16 -6 -15 -16
5 -11 19 -10 22 5 22 12 0 14 3 7 10 -16 16 -43 2 -37 -20 3 -11 -5 -29 -20
-45 l-25 -27 5 26 c5 26 -10 36 -23 15 -5 -8 -10 -6 -16 5 -26 46 -30 8 -27
-266 2 -156 5 -292 7 -304 3 -16 9 -19 33 -16 16 2 29 8 29 13 0 5 5 9 11 9 5
0 8 -4 4 -10 -3 -5 21 -10 57 -12 l63 -3 3 -179 3 -179 -428 7 c-235 3 -664 9
-953 12 -289 3 -538 9 -555 14 -81 24 -187 68 -177 74 10 6 378 3 985 -10
l308 -6 -5 203 c-3 112 -8 380 -11 594 l-5 390 121 135 c257 286 329 371 323
382 -4 6 -3 8 3 5 6 -4 13 -1 16 7 4 9 -4 16 -21 19 -138 28 -228 50 -230 57
-2 5 -35 14 -73 21 -38 7 -68 17 -66 22 2 6 24 16 50 24 47 13 59 26 35 37
-21 8 290 4 382 -6 106 -11 122 -16 97 -29 -9 -6 -22 -7 -29 -3 -7 5 -8 3 -3
-6 6 -10 4 -12 -8 -7 -9 3 -18 0 -21 -9 -3 -8 -4 -14 -1 -14 2 0 54 24 117 54
l113 54 6 -31 c4 -18 9 -263 12 -544z m-982 181 c35 -6 37 -8 37 -45 1 -21 3
-43 6 -48 3 -4 8 -289 11 -632 3 -343 8 -656 11 -696 l7 -73 -670 0 c-522 1
-682 4 -727 14 -130 31 -83 34 398 29 l476 -4 0 448 0 448 106 120 c160 181
239 276 239 287 0 5 8 15 17 22 16 12 14 14 -20 24 -20 6 -66 14 -102 17 -100
10 -230 47 -230 66 0 22 340 40 441 23z m-589 -46 c-7 -7 -12 -8 -12 -2 0 14
12 26 19 19 2 -3 -1 -11 -7 -17z m62 -225 c3 -21 6 -291 6 -600 l0 -563 -460
0 c-400 0 -460 2 -460 15 0 13 39 15 268 17 l267 3 -4 350 -4 350 94 114 c52
62 94 120 94 129 0 10 7 17 15 17 8 1 14 6 13 13 -2 7 3 12 11 12 14 0 66 61
66 79 0 5 8 14 17 19 18 11 6 14 -87 27 -25 4 -62 11 -82 17 -34 10 -36 12
-20 24 12 9 54 13 138 14 l121 0 7 -37z m-429 -385 c3 -150 5 -376 3 -503 l-3
-230 -250 0 c-195 0 -249 3 -248 13 2 6 -1 12 -6 12 -5 0 -13 15 -17 33 -4 17
-9 26 -11 20 -3 -7 -11 -13 -19 -13 -10 0 -11 6 -4 26 14 36 12 54 -5 54 -8 0
-15 5 -15 10 0 6 4 10 10 10 6 0 6 9 0 26 -6 14 -10 40 -10 59 0 40 -16 86
-34 100 -9 7 -15 41 -18 97 -4 71 -2 91 11 105 50 56 131 175 125 185 -4 6 -3
8 3 5 6 -4 32 21 58 56 l46 62 -58 6 c-32 3 -67 10 -77 16 -16 9 -15 11 10 15
16 3 56 5 89 4 l60 -1 0 -438 0 -437 23 0 22 0 0 293 1 292 74 89 c41 49 72
93 68 99 -3 6 -2 7 3 4 6 -3 16 3 23 15 7 11 8 17 2 13 -16 -9 -13 4 3 21 8 8
16 10 18 4 2 -6 22 14 45 44 l42 54 -80 12 c-93 13 -111 19 -103 31 3 5 52 9
108 9 l104 0 7 -272z m3435 142 c8 -5 12 -12 8 -15 -10 -10 -49 5 -43 16 8 11
16 11 35 -1z m-4102 -241 l2 -175 -33 4 c-22 2 -38 -2 -46 -12 -8 -9 -24 -16
-37 -16 -13 0 -24 -4 -24 -10 0 -5 8 -10 18 -10 14 0 18 -8 19 -37 1 -21 5
-39 10 -40 22 -8 34 -22 40 -44 9 -35 3 -178 -9 -224 -6 -22 -11 -45 -12 -52
-1 -7 -5 -15 -8 -19 -10 -9 -149 7 -143 16 5 8 -27 11 -292 26 -62 3 -113 10
-113 15 0 5 -45 9 -101 9 -133 0 -139 4 -139 85 0 73 28 135 61 135 14 0 19 7
19 28 0 19 36 86 105 197 57 92 102 172 99 176 -3 5 6 9 20 9 l26 0 0 -310 c0
-269 2 -310 15 -310 13 0 15 27 15 180 l0 180 99 148 c65 96 96 149 88 154 -6
4 -15 4 -19 2 -4 -3 -8 0 -8 5 0 12 14 14 48 5 l22 -6 0 -340 c0 -267 3 -339
13 -336 9 4 13 56 15 208 l2 202 59 82 c158 222 166 236 120 236 -10 0 -19 5
-19 10 0 6 18 9 43 8 l42 -3 3 -176z m3732 157 c0 -3 -4 -8 -10 -11 -5 -3 -10
-1 -10 4 0 6 5 11 10 11 6 0 10 -2 10 -4z m233 -21 c-6 -17 -25 -15 -31 3 -2
7 5 12 17 12 14 0 19 -5 14 -15z m-243 -15 c0 -5 -4 -10 -10 -10 -5 0 -10 5
-10 10 0 6 5 10 10 10 6 0 10 -4 10 -10z m170 -30 c0 -5 -10 -10 -22 -10 -19
0 -20 2 -8 10 19 13 30 13 30 0z m-1446 -71 c-3 -5 -10 -7 -15 -3 -5 3 -7 10
-3 15 3 5 10 7 15 3 5 -3 7 -10 3 -15z m116 -63 c0 -3 -4 -8 -10 -11 -5 -3
-10 -1 -10 4 0 6 5 11 10 11 6 0 10 -2 10 -4z m-120 -26 c0 -5 -4 -10 -10 -10
-5 0 -10 5 -10 10 0 6 5 10 10 10 6 0 10 -4 10 -10z m30 0 c0 -5 -2 -10 -4
-10 -3 0 -8 5 -11 10 -3 6 -1 10 4 10 6 0 11 -4 11 -10z m1610 -10 c0 -5 -4
-10 -10 -10 -5 0 -10 5 -10 10 0 6 5 10 10 10 6 0 10 -4 10 -10z m-1545 -135
c1 -14 -5 -25 -12 -25 -19 0 -29 30 -13 40 7 4 9 13 5 21 -7 12 -5 12 6 1 8
-7 14 -24 14 -37z"/>
<path d="M5316 5231 c-4 -5 3 -7 14 -4 23 6 26 13 6 13 -8 0 -17 -4 -20 -9z"/>
<path d="M5640 4860 c0 -5 7 -10 15 -10 8 0 15 5 15 10 0 6 -7 10 -15 10 -8 0
-15 -4 -15 -10z"/>
<path d="M5555 4840 c4 -6 11 -8 16 -5 14 9 11 15 -7 15 -8 0 -12 -5 -9 -10z"/>
<path d="M5221 4801 c-9 -6 -10 -11 -2 -15 13 -8 31 1 31 15 0 11 -11 11 -29
0z"/>
<path d="M5170 2891 c0 -6 5 -13 10 -16 6 -3 10 -1 10 5 0 7 8 9 21 5 15 -5
19 -4 15 4 -9 13 -56 15 -56 2z"/>
<path d="M5275 2890 c-3 -5 -3 -10 2 -10 4 0 18 -3 31 -6 18 -5 21 -3 16 10
-7 18 -39 22 -49 6z"/>
<path d="M6363 523 c-13 -2 -23 -9 -23 -14 0 -15 53 -7 58 9 2 6 0 11 -5 11
-4 -1 -18 -4 -30 -6z"/>
<path d="M5895 468 c-95 -13 -118 -18 -112 -25 9 -9 197 18 197 28 0 5 -3 8
-7 7 -5 0 -39 -5 -78 -10z"/>
<path d="M6000 470 c-11 -7 -8 -8 13 -6 15 1 30 6 34 9 10 11 -30 8 -47 -3z"/>
<path d="M6295 180 c3 -5 11 -10 16 -10 6 0 7 5 4 10 -3 6 -11 10 -16 10 -6 0
-7 -4 -4 -10z"/>
<path d="M6335 110 c-8 -13 15 -24 27 -12 6 6 4 11 -6 15 -8 3 -18 2 -21 -3z"/>
</g>
</svg>
